<?xml version="1.0" encoding="utf-8"?>
<!-- Generator: Adobe Illustrator 16.0.0, SVG Export Plug-In . SVG Version: 6.00 Build 0)  -->
<!DOCTYPE svg PUBLIC "-//W3C//DTD SVG 1.1//EN" "http://www.w3.org/Graphics/SVG/1.1/DTD/svg11.dtd">
<svg version="1.1" id="Layer_1" xmlns="http://www.w3.org/2000/svg" xmlns:xlink="http://www.w3.org/1999/xlink" x="0px" y="0px"
	 width="979.012px" height="177.475px" viewBox="0 0 979.012 177.475" enable-background="new 0 0 979.012 177.475"
	 xml:space="preserve">
<g>
	<polygon fill="#8C4B2B" points="10.906,25.836 35.714,177.476 111.68,177.476 136.484,25.836 	"/>
	<rect fill="#28190E" width="147.392" height="25.836"/>
	<polygon fill="#DC2A27" points="120.169,121.824 129.026,67.68 18.366,67.68 27.225,121.824 	"/>
</g>
<g>
	<polygon fill="#8C4B2B" points="215.769,25.836 240.574,177.476 316.543,177.476 341.348,25.836 	"/>
	<rect x="204.861" fill="#28190E" width="147.393" height="25.836"/>
	<polygon fill="#DC2A27" points="325.033,121.824 333.889,67.68 223.227,67.68 232.086,121.824 	"/>
</g>
<g>
	<polygon fill="#8C4B2B" points="433.236,25.836 458.043,177.476 534.01,177.476 558.818,25.836 	"/>
	<rect x="422.33" fill="#28190E" width="147.395" height="25.836"/>
	<polygon fill="#DC2A27" points="542.498,121.824 551.355,67.68 440.697,67.68 449.555,121.824 	"/>
</g>
<g>
	<polygon fill="#8C4B2B" points="638.098,25.836 662.908,177.476 738.873,177.476 763.682,25.836 	"/>
	<rect x="627.193" fill="#28190E" width="147.395" height="25.836"/>
	<polygon fill="#DC2A27" points="747.363,121.824 756.219,67.68 645.561,67.68 654.418,121.824 	"/>
</g>
<g>
	<polygon fill="#8C4B2B" points="842.523,26.623 867.332,178.262 943.297,178.262 968.107,26.623 	"/>
	<rect x="831.617" y="0.787" fill="#28190E" width="147.395" height="25.836"/>
	<polygon fill="#DC2A27" points="951.787,122.61 960.645,68.467 849.986,68.467 858.844,122.61 	"/>
</g>
</svg>
