<?xml version="1.0" encoding="utf-8"?>
<!-- Generator: Adobe Illustrator 16.0.0, SVG Export Plug-In . SVG Version: 6.00 Build 0)  -->
<!DOCTYPE svg PUBLIC "-//W3C//DTD SVG 1.1//EN" "http://www.w3.org/Graphics/SVG/1.1/DTD/svg11.dtd">
<svg version="1.1" id="Layer_1" xmlns="http://www.w3.org/2000/svg" xmlns:xlink="http://www.w3.org/1999/xlink" x="0px" y="0px" width="545.649px" height="125.971px" viewBox="0 0 545.649 125.971" enable-background="new 0 0 545.649 125.971" xml:space="preserve">
    <style>
        path,
        rect {
            fill: #dc2a26
        }

    </style>
    <g>
        <path d="M144.449,125.971h-20.03l-3.428-22.917H96.629l-3.429,22.917H74.975L95.186-0.345h29.053L144.449,125.971z M99.156,85.911
		h19.127L108.9,22.031h-0.361L99.156,85.911z" />
        <path d="M178.916,102.692h0.361L194.254-0.345h18.226l-19.489,126.315h-29.594L143.909-0.345h20.03L178.916,102.692z" />
        <path d="M281.413,125.971h-20.03l-3.428-22.917h-24.361l-3.429,22.917h-18.226L232.15-0.345h29.053L281.413,125.971z
		 M236.12,85.911h19.127l-9.383-63.879h-0.361L236.12,85.911z" />
    </g>
    <g>
        <path d="M18.767,77.43v15.608v15.437c0,9.023,3.97,12.271,10.286,12.271c6.315,0,10.286-3.248,10.286-12.271l0.001-15.437
		l0.06-15.75h19.789v16.924c0,20.21-10.105,31.759-29.594,31.759C10.105,125.971,0,114.422,0,94.212V77.43H18.767z" />
    </g>
    <rect x="27.065" y="69.08" transform="matrix(0.0068 1 -1 0.0068 108.2807 49.7759)" width="4.037" height="20.633" />
    <path d="M49.73,0c0,0,2.848,9.827-5.095,16.262C29.893,31.552,59.231,37.135,48.435,68.93c23.701-43.361-6.223-30.148,4.966-53.396
	C59.231,4.611,49.73,0,49.73,0z" />
    <path d="M44.293,77.055c0,0,11.572-5,10.029-16.25C67.824,72.555,44.293,77.055,44.293,77.055z" />
    <path d="M59.188,105.485c-6.971,0-12.431-4.063-12.431-9.25c0-5.186,5.46-9.249,12.431-9.249c6.971,0,12.432,4.063,12.432,9.249
	C71.619,101.422,66.159,105.485,59.188,105.485z M59.188,90.986c-4.57,0-8.431,2.403-8.431,5.249c0,2.846,3.861,5.25,8.431,5.25
	c4.57,0,8.432-2.404,8.432-5.25C67.619,93.39,63.758,90.986,59.188,90.986z" />
    <g>
        <path d="M335.74,25.561l-8.738,4.756c-2.475-3.141-5.799-4.712-9.975-4.712c-2.809,0-5.296,0.599-7.462,1.796
		c-2.165,1.198-3.892,2.929-5.181,5.195c-1.289,2.266-1.933,4.661-1.933,7.185c0,3.245,1.018,5.845,3.054,7.802
		c2.036,1.958,4.833,2.936,8.39,2.936c4.922,0,8.699-1.661,11.328-4.983l8.119,5.738c-2.297,2.74-5.154,4.885-8.573,6.436
		s-7.232,2.326-11.438,2.326c-6.554,0-11.721-1.805-15.501-5.416c-3.78-3.611-5.67-8.381-5.67-14.313
		c0-6.783,2.335-12.566,7.005-17.351c4.67-4.784,10.681-7.176,18.035-7.176C325.483,15.779,331.663,19.04,335.74,25.561z" />
        <path d="M345.649,16.862h9.205l-0.735,5.726c2.759-4.539,6.073-6.809,9.942-6.809c0.928,0,1.896,0.247,2.901,0.74l-3.778,9.393
		c-0.785-0.282-1.36-0.423-1.727-0.423c-2.015,0-3.813,1.167-5.395,3.501c-1.583,2.334-2.832,7.047-3.747,14.139l-2.041,15.822
		h-10.376L345.649,16.862z" />
        <path d="M404.296,16.862h10.342l-5.868,42.089h-10.225l0.618-4.521c-2.247,2.087-4.345,3.542-6.294,4.367
		c-1.949,0.824-4.137,1.236-6.565,1.236c-5.577,0-10.012-2.05-13.304-6.151c-3.292-4.101-4.938-8.872-4.938-14.313
		c0-4.152,1.053-8.104,3.16-11.857c2.106-3.752,4.935-6.679,8.485-8.781c3.55-2.102,7.263-3.153,11.139-3.153
		c2.601,0,5,0.597,7.199,1.792c2.198,1.194,4.012,2.934,5.442,5.218L404.296,16.862z M388.784,50.827
		c2.543,0,4.762-0.566,6.657-1.699c1.894-1.133,3.483-2.909,4.769-5.329c1.284-2.42,1.927-4.892,1.927-7.415
		c0-3.334-0.967-6.016-2.9-8.045c-1.934-2.029-4.483-3.044-7.649-3.044c-3.686,0-6.813,1.354-9.382,4.062
		c-2.569,2.708-3.854,6.203-3.854,10.484c0,3.301,0.973,5.958,2.919,7.969C383.218,49.821,385.722,50.827,388.784,50.827z" />
        <path d="M448.72,22.742l-4.924,7.892c-1.267-1.882-2.599-3.269-3.995-4.159c-1.396-0.89-2.702-1.334-3.917-1.334
		c-0.931,0-1.719,0.258-2.365,0.773c-0.647,0.516-0.97,1.097-0.97,1.741c0,0.619,0.258,1.238,0.776,1.857
		c0.491,0.619,1.978,1.818,4.46,3.598c3.956,2.837,6.562,5.268,7.816,7.292c1.253,2.025,1.881,4.223,1.881,6.596
		c0,3.121-1.283,6.074-3.849,8.859c-2.566,2.785-6.286,4.178-11.161,4.178c-2.812,0-5.371-0.567-7.679-1.702
		c-2.308-1.134-4.881-3.21-7.717-6.228l6.383-7.428c2.888,3.817,6.047,5.726,9.478,5.726c1.367,0,2.457-0.329,3.269-0.986
		c0.813-0.658,1.219-1.438,1.219-2.341c0-0.722-0.31-1.463-0.928-2.224c-0.619-0.761-2.309-2.121-5.068-4.082
		c-3.198-2.269-5.403-4.216-6.615-5.841c-1.702-2.269-2.553-4.667-2.553-7.195c0-3.533,1.334-6.409,4.004-8.627
		c2.669-2.218,5.822-3.327,9.458-3.327c2.553,0,4.977,0.606,7.273,1.818C445.29,18.81,447.198,20.524,448.72,22.742z" />
        <path d="M462.764,0.614h10.268l-2.79,20.515c3.955-3.567,8.064-5.351,12.329-5.351c3.645,0,6.629,1.156,8.955,3.466
		c2.326,2.31,3.489,5.221,3.489,8.732c0,1.652-0.219,4.118-0.658,7.396l-3.222,23.579h-10.307l3.145-23.018
		c0.31-2.373,0.464-4.152,0.464-5.338c0-1.702-0.484-3.011-1.453-3.927c-0.968-0.915-2.343-1.373-4.125-1.373
		c-1.729,0-3.46,0.6-5.19,1.8c-1.73,1.2-3.06,2.864-3.99,4.993s-1.782,6.122-2.556,11.979L465.1,58.951h-10.307L462.764,0.614z" />
        <path d="M335.74,92.308l-8.738,4.756c-2.475-3.141-5.799-4.712-9.975-4.712c-2.809,0-5.296,0.599-7.462,1.796
		c-2.165,1.198-3.892,2.929-5.181,5.195c-1.289,2.266-1.933,4.661-1.933,7.185c0,3.245,1.018,5.845,3.054,7.802
		c2.036,1.958,4.833,2.936,8.39,2.936c4.922,0,8.699-1.661,11.328-4.983l8.119,5.738c-2.297,2.74-5.154,4.885-8.573,6.436
		s-7.232,2.326-11.438,2.326c-6.554,0-11.721-1.805-15.501-5.416c-3.78-3.611-5.67-8.381-5.67-14.313
		c0-6.783,2.335-12.566,7.005-17.351c4.67-4.784,10.681-7.176,18.035-7.176C325.483,82.526,331.663,85.787,335.74,92.308z" />
        <path d="M366.978,82.526c3.739,0,7.138,0.864,10.194,2.592c3.056,1.728,5.435,4.178,7.137,7.35s2.553,6.731,2.553,10.677
		c0,6.551-2.334,12.127-7.002,16.731c-4.668,4.604-10.445,6.905-17.331,6.905c-5.983,0-10.754-1.812-14.313-5.435
		c-3.559-3.623-5.338-8.362-5.338-14.217c0-7.066,2.411-12.934,7.234-17.602C354.934,84.86,360.557,82.526,366.978,82.526z
		 M366.26,92.313c-4.223,0-7.46,1.516-9.713,4.545c-2.253,3.031-3.379,6.313-3.379,9.846c0,3.146,0.92,5.681,2.761,7.602
		c1.841,1.921,4.293,2.882,7.357,2.882c4.352,0,7.667-1.463,9.945-4.391c2.278-2.927,3.418-6.273,3.418-10.039
		c0-3.095-0.966-5.609-2.896-7.543C371.822,93.28,369.324,92.313,366.26,92.313z" />
        <path d="M398.872,83.609h10.221l-2.939,21.509c-0.31,2.373-0.464,4.153-0.464,5.339c0,1.856,0.645,3.417,1.936,4.681
		c1.291,1.264,2.969,1.896,5.035,1.896c2.66,0,4.706-0.813,6.139-2.437c1.433-1.625,2.486-4.926,3.157-9.903l2.881-21.083h10.229
		l-3.015,22.637c-0.699,5.105-1.869,9.056-3.511,11.854c-1.642,2.797-3.82,4.944-6.535,6.439c-2.715,1.496-5.909,2.243-9.58,2.243
		c-5.171,0-9.282-1.49-12.334-4.47c-3.051-2.98-4.577-6.831-4.577-11.553c0-2.888,0.336-6.6,1.011-11.139L398.872,83.609z" />
        <path d="M443.909,83.609h9.205l-0.735,5.726c2.759-4.539,6.073-6.809,9.942-6.809c0.928,0,1.896,0.247,2.901,0.74l-3.778,9.393
		c-0.785-0.282-1.36-0.423-1.727-0.423c-2.015,0-3.813,1.167-5.395,3.501c-1.583,2.334-2.832,7.047-3.747,14.139l-2.041,15.822
		h-10.376L443.909,83.609z" />
        <path d="M494.677,89.489l-4.924,7.892c-1.267-1.882-2.599-3.269-3.995-4.159c-1.396-0.89-2.702-1.334-3.917-1.334
		c-0.931,0-1.719,0.258-2.365,0.773c-0.647,0.516-0.97,1.097-0.97,1.741c0,0.619,0.258,1.238,0.776,1.857
		c0.491,0.619,1.978,1.818,4.46,3.598c3.956,2.837,6.562,5.268,7.816,7.292c1.253,2.025,1.881,4.223,1.881,6.596
		c0,3.121-1.283,6.074-3.849,8.859c-2.566,2.785-6.286,4.178-11.161,4.178c-2.812,0-5.371-0.567-7.679-1.702
		c-2.308-1.134-4.881-3.21-7.717-6.228l6.383-7.428c2.888,3.817,6.047,5.726,9.478,5.726c1.367,0,2.457-0.329,3.269-0.986
		c0.813-0.658,1.219-1.438,1.219-2.341c0-0.722-0.31-1.463-0.928-2.224c-0.619-0.761-2.309-2.121-5.068-4.082
		c-3.198-2.269-5.403-4.216-6.615-5.841c-1.702-2.269-2.553-4.667-2.553-7.195c0-3.533,1.334-6.409,4.004-8.627
		c2.669-2.218,5.822-3.327,9.458-3.327c2.553,0,4.977,0.606,7.273,1.818C491.247,85.557,493.155,87.271,494.677,89.489z" />
        <path d="M532.279,113.381l9.091,4.711c-2.038,2.678-4.739,4.795-8.104,6.353c-3.366,1.557-7.099,2.336-11.2,2.336
		c-6.421,0-11.483-1.805-15.184-5.416c-3.701-3.611-5.551-8.408-5.551-14.391c0-6.834,2.314-12.617,6.944-17.35
		c4.629-4.732,10.219-7.099,16.77-7.099c3.946,0,7.459,0.864,10.542,2.592c3.082,1.728,5.513,4.243,7.292,7.543
		c1.779,3.302,2.669,6.886,2.669,10.754c0,1.213-0.129,2.631-0.387,4.255h-33.579c0.103,2.926,1.064,5.257,2.882,6.992
		c1.818,1.735,4.326,2.603,7.524,2.603C525.857,117.265,529.287,115.97,532.279,113.381z M534.91,100.089
		c-0.774-2.579-2.063-4.532-3.869-5.861c-1.806-1.328-3.984-1.992-6.538-1.992c-2.528,0-4.811,0.684-6.847,2.05
		c-2.038,1.367-3.585,3.301-4.643,5.803H534.91z" />
    </g>
    <g>
        <path fill="#FFFFFF" d="M45.83,45.84c4.887,13.162-9.226,12.249-1.875,26.223" />
        <path d="M45.83,45.84c0,0,0.293,0.367,0.728,1.032c0.206,0.341,0.504,0.718,0.733,1.227c0.216,0.53,0.464,1.153,0.693,1.868
		c0.143,0.713,0.29,1.512,0.309,2.377c-0.014,0.433-0.054,0.881-0.088,1.344c-0.025,0.467-0.193,0.902-0.296,1.372
		c-0.1,0.48-0.281,0.913-0.469,1.349c-0.178,0.448-0.372,0.891-0.602,1.28c-0.427,0.838-0.916,1.571-1.338,2.291
		c-0.456,0.699-0.811,1.366-1.153,2c-0.126,0.321-0.267,0.635-0.42,0.945c-0.091,0.318-0.168,0.635-0.279,0.947
		c-0.139,0.309-0.09,0.646-0.17,0.965c-0.05,0.323-0.125,0.642-0.098,0.973c0.026,0.653-0.071,1.301,0.048,1.912
		c0.078,0.608,0.092,1.199,0.158,1.722c0.109,0.509,0.169,0.978,0.228,1.364c0.113,0.775,0.143,1.255,0.143,1.255
		s-0.336-0.311-0.864-0.918c-0.261-0.305-0.591-0.677-0.928-1.131c-0.32-0.464-0.63-1.03-0.967-1.66
		c-0.376-0.61-0.556-1.394-0.811-2.209c-0.149-0.403-0.163-0.857-0.212-1.32c-0.025-0.463-0.119-0.943-0.042-1.431
		c0.046-0.488,0.113-0.99,0.196-1.493c0.134-0.479,0.285-0.965,0.452-1.45c0.369-0.924,0.838-1.797,1.315-2.569
		c0.466-0.715,0.931-1.43,1.39-2.134c0.23-0.336,0.416-0.655,0.597-0.967c0.191-0.315,0.377-0.627,0.505-0.935
		c0.132-0.311,0.321-0.61,0.417-0.921c0.102-0.311,0.194-0.621,0.31-0.924c0.128-0.303,0.12-0.625,0.199-0.929
		c0.057-0.306,0.138-0.612,0.173-0.904c0.026-0.576,0.088-1.136,0.14-1.655c0.006-0.526-0.028-1.021-0.025-1.413
		C45.791,46.306,45.83,45.84,45.83,45.84z" />
    </g>
    <g>
        <path fill="#FFFFFF" d="M57.012,17.007c2.075,6.48-3.678,5.942-0.594,12.837" />
        <path d="M57.012,17.007c0,0,0.135,0.181,0.339,0.506c0.096,0.166,0.231,0.355,0.34,0.598c0.103,0.254,0.22,0.55,0.322,0.889
		c0.086,0.337,0.152,0.712,0.191,1.12c-0.003,0.408,0.006,0.855-0.101,1.296c-0.033,0.229-0.092,0.45-0.168,0.662
		c-0.069,0.217-0.141,0.443-0.234,0.639c-0.17,0.418-0.373,0.793-0.545,1.154c-0.187,0.354-0.334,0.686-0.469,1.005
		c-0.057,0.16-0.114,0.319-0.17,0.476c-0.036,0.16-0.071,0.319-0.118,0.477c-0.041,0.323-0.116,0.643-0.111,0.966
		c0.005,0.321-0.043,0.639-0.005,0.938c0.03,0.297,0.025,0.583,0.042,0.837c0.037,0.25,0.05,0.478,0.066,0.666
		c0.027,0.378,0.027,0.609,0.027,0.609s-0.153-0.159-0.397-0.461c-0.25-0.3-0.579-0.75-0.853-1.373
		c-0.168-0.297-0.265-0.664-0.378-1.052c-0.114-0.385-0.141-0.834-0.158-1.291c0.014-0.465,0.072-0.945,0.215-1.409
		c0.134-0.458,0.327-0.894,0.521-1.286c0.193-0.361,0.387-0.723,0.578-1.079c0.17-0.337,0.345-0.645,0.455-0.958
		c0.143-0.307,0.209-0.622,0.307-0.926c0.055-0.309,0.125-0.618,0.167-0.905c0.013-0.283,0.048-0.557,0.079-0.808
		c0.006-0.264,0.011-0.493,0.015-0.683C56.984,17.231,57.012,17.007,57.012,17.007z" />
    </g>
</svg>
