<?xml version="1.0" encoding="utf-8"?>
<!-- Generator: Adobe Illustrator 16.0.0, SVG Export Plug-In . SVG Version: 6.00 Build 0)  -->
<!DOCTYPE svg PUBLIC "-//W3C//DTD SVG 1.1//EN" "http://www.w3.org/Graphics/SVG/1.1/DTD/svg11.dtd">
<svg version="1.1" id="Layer_1" xmlns="http://www.w3.org/2000/svg" xmlns:xlink="http://www.w3.org/1999/xlink" x="0px" y="0px" width="279.078px" height="125.971px" viewBox="0 0 279.078 125.971" enable-background="new 0 0 279.078 125.971" xml:space="preserve">
    <style>
        path,
        rect {
            fill: #dc2a26
        }

    </style>
    <g>
        <path d="M18.767,77.43v15.608v15.437c0,9.023,3.97,12.271,10.286,12.271c6.315,0,10.286-3.248,10.286-12.271l0.001-15.437
		l0.06-15.75h19.789v16.924c0,20.21-10.105,31.759-29.594,31.759C10.105,125.971,0,114.422,0,94.212V77.43H18.767z" />
    </g>
    <rect x="27.063" y="69.083" transform="matrix(-0.0068 -1 1 -0.0068 -50.1183 109.0183)" width="4.037" height="20.633" />
    <path d="M49.73,0c0,0,2.848,9.827-5.095,16.262c-14.742,15.29,14.596,20.873,3.8,52.668c23.701-43.361-6.223-30.147,4.966-53.396
	C59.231,4.611,49.73,0,49.73,0z" />
    <path d="M44.293,77.055c0,0,11.572-5,10.029-16.25C67.824,72.555,44.293,77.055,44.293,77.055z" />
    <path d="M55.188,105.485c-6.971,0-12.431-4.063-12.431-9.25c0-5.186,5.46-9.249,12.431-9.249s12.432,4.063,12.432,9.249
	C67.619,101.422,62.159,105.485,55.188,105.485z M55.188,90.986c-4.57,0-8.431,2.403-8.431,5.249c0,2.847,3.861,5.25,8.431,5.25
	s8.432-2.403,8.432-5.25C63.619,93.39,59.758,90.986,55.188,90.986z" />
    <g>
        <path fill="#FFFFFF" d="M45.83,45.84c4.887,13.162-9.226,12.249-1.875,26.223" />
        <path d="M45.83,45.84c0,0,0.293,0.367,0.728,1.032c0.206,0.341,0.504,0.718,0.733,1.227c0.216,0.53,0.464,1.153,0.693,1.868
		c0.143,0.713,0.29,1.512,0.309,2.377c-0.014,0.433-0.054,0.881-0.088,1.344c-0.025,0.467-0.193,0.902-0.296,1.372
		c-0.1,0.48-0.281,0.913-0.469,1.35c-0.178,0.447-0.372,0.891-0.602,1.279c-0.427,0.838-0.916,1.571-1.338,2.291
		c-0.456,0.699-0.811,1.366-1.153,2c-0.126,0.321-0.267,0.636-0.42,0.945c-0.091,0.318-0.168,0.635-0.279,0.947
		c-0.139,0.309-0.09,0.646-0.17,0.965c-0.05,0.323-0.125,0.642-0.098,0.973c0.026,0.653-0.071,1.301,0.048,1.912
		c0.078,0.608,0.092,1.199,0.158,1.722c0.109,0.51,0.169,0.979,0.228,1.364c0.113,0.775,0.143,1.255,0.143,1.255
		s-0.336-0.311-0.864-0.918c-0.261-0.305-0.591-0.677-0.928-1.131c-0.32-0.464-0.63-1.03-0.967-1.66
		c-0.376-0.609-0.556-1.394-0.811-2.209c-0.149-0.402-0.163-0.856-0.212-1.319c-0.025-0.464-0.119-0.943-0.042-1.432
		c0.046-0.487,0.113-0.99,0.196-1.493c0.134-0.479,0.285-0.965,0.452-1.449c0.369-0.925,0.838-1.798,1.315-2.569
		c0.466-0.715,0.931-1.43,1.39-2.134c0.23-0.336,0.416-0.655,0.597-0.967c0.191-0.315,0.377-0.628,0.505-0.936
		c0.132-0.311,0.321-0.61,0.417-0.921c0.102-0.312,0.194-0.621,0.31-0.924c0.128-0.303,0.12-0.625,0.199-0.93
		c0.057-0.306,0.138-0.611,0.173-0.903c0.026-0.576,0.088-1.136,0.14-1.655c0.006-0.526-0.028-1.021-0.025-1.413
		C45.791,46.306,45.83,45.84,45.83,45.84z" />
    </g>
    <g>
        <path fill="#FFFFFF" d="M57.012,17.007c2.075,6.479-3.678,5.942-0.594,12.837" />
        <path d="M57.012,17.007c0,0,0.135,0.181,0.339,0.506c0.096,0.166,0.231,0.355,0.34,0.598c0.103,0.255,0.22,0.551,0.322,0.89
		c0.086,0.337,0.152,0.712,0.191,1.12c-0.003,0.407,0.006,0.854-0.101,1.296c-0.033,0.229-0.092,0.45-0.168,0.662
		c-0.069,0.217-0.141,0.442-0.234,0.639c-0.17,0.418-0.373,0.793-0.545,1.154c-0.187,0.354-0.334,0.686-0.469,1.005
		c-0.057,0.16-0.114,0.318-0.17,0.476c-0.036,0.16-0.071,0.319-0.118,0.478c-0.041,0.322-0.116,0.643-0.111,0.966
		c0.005,0.321-0.043,0.639-0.005,0.938c0.03,0.297,0.025,0.583,0.042,0.837c0.037,0.25,0.05,0.479,0.066,0.666
		c0.027,0.379,0.027,0.609,0.027,0.609s-0.153-0.159-0.397-0.461c-0.25-0.3-0.579-0.75-0.853-1.373
		c-0.168-0.297-0.265-0.664-0.378-1.052c-0.114-0.385-0.141-0.834-0.158-1.291c0.014-0.465,0.072-0.945,0.215-1.409
		c0.134-0.458,0.327-0.894,0.521-1.286c0.193-0.361,0.387-0.723,0.578-1.079c0.17-0.337,0.345-0.645,0.455-0.958
		c0.143-0.307,0.209-0.622,0.307-0.926c0.055-0.309,0.125-0.618,0.167-0.905c0.013-0.282,0.048-0.557,0.079-0.808
		c0.006-0.264,0.011-0.493,0.015-0.683C56.984,17.231,57.012,17.007,57.012,17.007z" />
    </g>
    <g>
        <path fill="#231F20" d="M95.945,124.624h-8.789l-1.504-10.057H74.962l-1.504,10.057h-7.997L74.329,69.2h12.748L95.945,124.624z
		 M76.071,107.046h8.393l-4.117-28.029h-0.158L76.071,107.046z" />
        <path fill="#231F20" d="M111.068,114.409h0.158l6.572-45.209h7.997l-8.551,55.424h-12.985L95.708,69.2h8.789L111.068,114.409z" />
        <path fill="#231F20" d="M156.042,124.624h-8.789l-1.504-10.057h-10.689l-1.504,10.057h-7.997l8.868-55.424h12.748L156.042,124.624z
		 M136.168,107.046h8.393l-4.117-28.029h-0.158L136.168,107.046z" />
    </g>
    <g>
        <path fill="#231F20" d="M183.908,78.937l-3.964,2.158c-1.122-1.426-2.631-2.139-4.524-2.139c-1.275,0-2.402,0.271-3.385,0.814
		c-0.982,0.545-1.765,1.33-2.35,2.357c-0.584,1.027-0.876,2.113-0.876,3.26c0,1.471,0.461,2.65,1.385,3.539
		c0.923,0.887,2.192,1.33,3.806,1.33c2.233,0,3.946-0.752,5.139-2.26l3.683,2.604c-1.042,1.242-2.338,2.215-3.889,2.918
		s-3.28,1.055-5.188,1.055c-2.974,0-5.317-0.818-7.032-2.455c-1.714-1.639-2.572-3.803-2.572-6.494c0-3.076,1.059-5.699,3.178-7.869
		c2.118-2.17,4.845-3.256,8.18-3.256C179.255,74.499,182.058,75.98,183.908,78.937z" />
        <path fill="#231F20" d="M188.402,74.991h4.176l-0.333,2.596c1.251-2.059,2.755-3.088,4.51-3.088c0.421,0,0.86,0.113,1.315,0.336
		l-1.713,4.262c-0.356-0.129-0.617-0.193-0.783-0.193c-0.914,0-1.73,0.529-2.447,1.588c-0.719,1.061-1.285,3.197-1.7,6.414
		l-0.926,7.178h-4.706L188.402,74.991z" />
        <path fill="#231F20" d="M215.005,74.991h4.691l-2.662,19.092h-4.639l0.28-2.051c-1.019,0.947-1.971,1.607-2.854,1.98
		c-0.885,0.375-1.877,0.561-2.979,0.561c-2.529,0-4.541-0.93-6.035-2.789c-1.492-1.859-2.24-4.023-2.24-6.492
		c0-1.885,0.479-3.678,1.434-5.379c0.956-1.703,2.238-3.029,3.85-3.984c1.61-0.953,3.295-1.43,5.053-1.43
		c1.18,0,2.268,0.271,3.266,0.813c0.996,0.543,1.819,1.332,2.469,2.367L215.005,74.991z M207.968,90.398
		c1.154,0,2.16-0.256,3.02-0.77c0.859-0.516,1.58-1.32,2.163-2.418s0.874-2.219,0.874-3.363c0-1.514-0.438-2.729-1.315-3.65
		c-0.877-0.92-2.034-1.381-3.47-1.381c-1.672,0-3.09,0.615-4.256,1.844c-1.165,1.229-1.748,2.813-1.748,4.756
		c0,1.496,0.441,2.701,1.324,3.613C205.443,89.943,206.58,90.398,207.968,90.398z" />
        <path fill="#231F20" d="M235.156,77.657l-2.234,3.58c-0.574-0.854-1.178-1.482-1.812-1.887c-0.634-0.402-1.226-0.605-1.776-0.605
		c-0.422,0-0.779,0.117-1.072,0.352c-0.294,0.234-0.44,0.498-0.44,0.789c0,0.281,0.117,0.563,0.352,0.844
		c0.223,0.279,0.897,0.824,2.023,1.631c1.794,1.287,2.976,2.391,3.545,3.309s0.854,1.916,0.854,2.992
		c0,1.414-0.582,2.754-1.746,4.018s-2.852,1.895-5.063,1.895c-1.275,0-2.437-0.256-3.483-0.771c-1.047-0.514-2.214-1.457-3.5-2.824
		l2.895-3.369c1.311,1.73,2.744,2.596,4.299,2.596c0.621,0,1.115-0.148,1.483-0.447s0.553-0.652,0.553-1.061
		c0-0.328-0.14-0.664-0.421-1.01s-1.047-0.963-2.299-1.852c-1.451-1.029-2.451-1.912-3.001-2.648
		c-0.772-1.029-1.158-2.119-1.158-3.266c0-1.602,0.605-2.906,1.816-3.912s2.642-1.51,4.29-1.51c1.158,0,2.258,0.275,3.299,0.824
		C233.599,75.874,234.465,76.652,235.156,77.657z" />
        <path fill="#231F20" d="M241.526,67.62h4.657l-1.265,9.307c1.794-1.619,3.657-2.428,5.593-2.428c1.652,0,3.007,0.525,4.062,1.572
		c1.056,1.049,1.583,2.369,1.583,3.961c0,0.75-0.1,1.867-0.299,3.355l-1.461,10.695h-4.676l1.427-10.441
		c0.14-1.076,0.21-1.883,0.21-2.422c0-0.771-0.219-1.365-0.658-1.781c-0.439-0.414-1.063-0.623-1.871-0.623
		c-0.785,0-1.57,0.273-2.354,0.816c-0.785,0.545-1.388,1.301-1.81,2.266s-0.809,2.777-1.16,5.434l-0.918,6.752h-4.675L241.526,67.62
		z" />
        <path fill="#231F20" d="M183.908,109.214l-3.964,2.156c-1.122-1.424-2.631-2.137-4.524-2.137c-1.275,0-2.402,0.271-3.385,0.814
		c-0.982,0.543-1.765,1.328-2.35,2.355c-0.584,1.029-0.876,2.115-0.876,3.26c0,1.473,0.461,2.652,1.385,3.539
		c0.923,0.889,2.192,1.332,3.806,1.332c2.233,0,3.946-0.754,5.139-2.26l3.683,2.602c-1.042,1.242-2.338,2.217-3.889,2.92
		s-3.28,1.055-5.188,1.055c-2.974,0-5.317-0.818-7.032-2.457c-1.714-1.637-2.572-3.801-2.572-6.492c0-3.076,1.059-5.701,3.178-7.871
		c2.118-2.17,4.845-3.254,8.18-3.254C179.255,104.777,182.058,106.255,183.908,109.214z" />
        <path fill="#231F20" d="M198.078,104.777c1.695,0,3.237,0.391,4.623,1.176c1.387,0.783,2.466,1.895,3.238,3.334
		c0.771,1.438,1.158,3.053,1.158,4.842c0,2.973-1.059,5.502-3.176,7.59c-2.118,2.088-4.738,3.133-7.861,3.133
		c-2.715,0-4.879-0.822-6.493-2.465c-1.614-1.645-2.422-3.793-2.422-6.449c0-3.205,1.094-5.867,3.282-7.984
		C192.614,105.835,195.165,104.777,198.078,104.777z M197.751,109.216c-1.915,0-3.384,0.688-4.406,2.061
		c-1.021,1.375-1.532,2.863-1.532,4.467c0,1.428,0.417,2.576,1.253,3.447c0.834,0.873,1.947,1.309,3.337,1.309
		c1.974,0,3.478-0.664,4.511-1.992c1.034-1.328,1.551-2.846,1.551-4.553c0-1.404-0.438-2.545-1.314-3.422
		C200.275,109.654,199.142,109.216,197.751,109.216z" />
        <path fill="#231F20" d="M212.544,105.267h4.637l-1.334,9.758c-0.141,1.076-0.21,1.883-0.21,2.42c0,0.844,0.292,1.551,0.878,2.125
		c0.586,0.572,1.347,0.859,2.284,0.859c1.206,0,2.134-0.369,2.784-1.105c0.65-0.738,1.128-2.234,1.432-4.492l1.308-9.564h4.64
		l-1.367,10.27c-0.317,2.314-0.848,4.107-1.593,5.375c-0.745,1.27-1.733,2.244-2.965,2.922s-2.681,1.018-4.345,1.018
		c-2.347,0-4.211-0.676-5.596-2.027c-1.384-1.352-2.076-3.1-2.076-5.24c0-1.311,0.153-2.994,0.459-5.053L212.544,105.267z" />
        <path fill="#231F20" d="M232.974,105.267h4.175l-0.333,2.598c1.252-2.059,2.755-3.088,4.51-3.088c0.421,0,0.859,0.111,1.316,0.336
		l-1.715,4.26c-0.355-0.127-0.617-0.191-0.783-0.191c-0.914,0-1.729,0.529-2.447,1.588c-0.717,1.059-1.284,3.197-1.699,6.414
		l-0.926,7.176h-4.707L232.974,105.267z" />
        <path fill="#231F20" d="M256.002,107.935l-2.233,3.58c-0.575-0.854-1.18-1.482-1.813-1.887s-1.225-0.605-1.776-0.605
		c-0.423,0-0.78,0.117-1.073,0.352s-0.439,0.496-0.439,0.789c0,0.281,0.117,0.561,0.352,0.842c0.223,0.281,0.897,0.824,2.023,1.633
		c1.795,1.287,2.977,2.389,3.545,3.307c0.568,0.92,0.854,1.916,0.854,2.992c0,1.416-0.582,2.756-1.746,4.02
		c-1.164,1.262-2.852,1.895-5.063,1.895c-1.275,0-2.437-0.258-3.483-0.771c-1.047-0.516-2.214-1.457-3.501-2.826l2.896-3.369
		c1.31,1.732,2.743,2.598,4.3,2.598c0.619,0,1.113-0.15,1.482-0.447c0.369-0.299,0.553-0.652,0.553-1.063
		c0-0.326-0.141-0.664-0.421-1.008c-0.28-0.346-1.048-0.963-2.299-1.852c-1.45-1.029-2.451-1.914-3.001-2.65
		c-0.771-1.029-1.158-2.117-1.158-3.264c0-1.604,0.605-2.906,1.816-3.914c1.211-1.006,2.641-1.508,4.291-1.508
		c1.158,0,2.257,0.275,3.299,0.824C254.447,106.152,255.312,106.929,256.002,107.935z" />
        <path fill="#231F20" d="M273.059,118.773l4.124,2.137c-0.925,1.215-2.15,2.176-3.677,2.881c-1.526,0.707-3.22,1.061-5.08,1.061
		c-2.913,0-5.209-0.818-6.888-2.457c-1.679-1.637-2.518-3.813-2.518-6.527c0-3.1,1.049-5.723,3.149-7.871
		c2.1-2.146,4.636-3.219,7.606-3.219c1.791,0,3.385,0.391,4.782,1.176c1.397,0.783,2.501,1.924,3.308,3.422
		c0.808,1.496,1.211,3.123,1.211,4.877c0,0.551-0.059,1.193-0.176,1.932h-15.23c0.046,1.326,0.482,2.385,1.307,3.17
		c0.824,0.787,1.963,1.182,3.413,1.182C270.146,120.534,271.702,119.947,273.059,118.773z M274.251,112.743
		c-0.35-1.17-0.936-2.057-1.754-2.658c-0.819-0.604-1.808-0.904-2.966-0.904c-1.146,0-2.183,0.311-3.106,0.93
		c-0.924,0.621-1.625,1.498-2.105,2.633H274.251z" />
    </g>
</svg>
