<?xml version="1.0" encoding="utf-8"?>
<!-- Generator: Adobe Illustrator 16.0.0, SVG Export Plug-In . SVG Version: 6.00 Build 0)  -->
<!DOCTYPE svg PUBLIC "-//W3C//DTD SVG 1.1//EN" "http://www.w3.org/Graphics/SVG/1.1/DTD/svg11.dtd">
<svg version="1.1" id="Layer_1" xmlns="http://www.w3.org/2000/svg" xmlns:xlink="http://www.w3.org/1999/xlink" x="0px" y="0px"
	 width="545.548px" height="126.315px" viewBox="0 0 545.548 126.315" enable-background="new 0 0 545.548 126.315"
	 xml:space="preserve">
<g>
	<path d="M144.449,126.315h-20.03l-3.428-22.917H96.629l-3.429,22.917H74.975L95.186,0h29.053L144.449,126.315z M99.156,86.255
		h19.127L108.9,22.376h-0.361L99.156,86.255z"/>
	<path d="M178.916,103.037h0.361L194.254,0h18.226l-19.489,126.315h-29.594L143.909,0h20.03L178.916,103.037z"/>
	<path d="M281.413,126.315h-20.03l-3.428-22.917h-24.361l-3.429,22.917h-18.226L232.15,0h29.053L281.413,126.315z M236.12,86.255
		h19.127l-9.383-63.879h-0.361L236.12,86.255z"/>
</g>
<g>
	<path d="M18.767,77.774v15.608v15.437c0,9.023,3.97,12.271,10.286,12.271c6.315,0,10.286-3.248,10.286-12.271l0.001-15.437
		l0.06-15.75h19.789v16.924c0,20.21-10.105,31.759-29.594,31.759C10.105,126.315,0,114.767,0,94.557V77.774H18.767z"/>
</g>
<rect x="27.083" y="69.387" transform="matrix(0.0068 1 -1 0.0068 108.5862 50.0762)" width="4" height="20.633"/>
<path d="M49.73,0.345c0,0,2.848,9.827-5.095,16.262c-14.743,15.291,14.596,20.873,3.799,52.668
	c23.701-43.361-6.223-30.148,4.966-53.396C59.231,4.956,49.73,0.345,49.73,0.345z"/>
<path d="M44.293,77.399c0,0,11.572-5,10.029-16.25C67.824,72.899,44.293,77.399,44.293,77.399z"/>
<path d="M59.188,105.83c-6.971,0-12.431-4.063-12.431-9.25c0-5.186,5.46-9.249,12.431-9.249c6.971,0,12.432,4.063,12.432,9.249
	C71.619,101.767,66.159,105.83,59.188,105.83z M59.188,91.331c-4.57,0-8.431,2.403-8.431,5.249c0,2.846,3.861,5.25,8.431,5.25
	c4.57,0,8.432-2.404,8.432-5.25C67.619,93.734,63.758,91.331,59.188,91.331z"/>
<g>
	<path d="M335.74,25.906l-8.738,4.756c-2.475-3.141-5.799-4.712-9.975-4.712c-2.809,0-5.296,0.599-7.462,1.796
		c-2.165,1.198-3.892,2.929-5.181,5.195c-1.289,2.266-1.933,4.661-1.933,7.185c0,3.245,1.018,5.845,3.054,7.802
		c2.036,1.958,4.833,2.936,8.39,2.936c4.922,0,8.699-1.661,11.328-4.983l8.119,5.738c-2.297,2.74-5.154,4.885-8.573,6.436
		s-7.232,2.326-11.438,2.326c-6.554,0-11.721-1.805-15.501-5.416c-3.78-3.611-5.67-8.381-5.67-14.313
		c0-6.783,2.335-12.566,7.005-17.351c4.67-4.784,10.681-7.176,18.035-7.176C325.483,16.124,331.663,19.384,335.74,25.906z"/>
	<path d="M345.649,17.207h9.205l-0.735,5.726c2.759-4.539,6.073-6.809,9.942-6.809c0.928,0,1.896,0.247,2.901,0.74l-3.778,9.393
		c-0.785-0.282-1.36-0.423-1.727-0.423c-2.015,0-3.813,1.167-5.395,3.501c-1.583,2.334-2.832,7.047-3.747,14.139l-2.041,15.822
		h-10.376L345.649,17.207z"/>
	<path d="M404.295,17.207h10.342l-5.868,42.089h-10.225l0.618-4.521c-2.247,2.087-4.345,3.542-6.294,4.367
		c-1.949,0.824-4.137,1.236-6.565,1.236c-5.577,0-10.012-2.05-13.304-6.151c-3.292-4.101-4.938-8.872-4.938-14.313
		c0-4.152,1.053-8.104,3.16-11.857c2.106-3.752,4.935-6.679,8.485-8.781c3.55-2.102,7.263-3.153,11.139-3.153
		c2.601,0,5,0.597,7.199,1.792c2.198,1.194,4.012,2.934,5.442,5.218L404.295,17.207z M388.784,51.172
		c2.543,0,4.762-0.566,6.657-1.699c1.894-1.133,3.483-2.909,4.769-5.329c1.284-2.42,1.927-4.892,1.927-7.415
		c0-3.334-0.967-6.016-2.9-8.045c-1.934-2.029-4.483-3.044-7.649-3.044c-3.686,0-6.813,1.354-9.382,4.062
		c-2.569,2.708-3.854,6.203-3.854,10.484c0,3.301,0.973,5.958,2.919,7.969C383.217,50.166,385.721,51.172,388.784,51.172z"/>
	<path d="M448.719,23.087l-4.924,7.892c-1.267-1.882-2.599-3.269-3.995-4.159c-1.396-0.89-2.702-1.334-3.917-1.334
		c-0.931,0-1.719,0.258-2.365,0.773c-0.647,0.516-0.97,1.097-0.97,1.741c0,0.619,0.258,1.238,0.776,1.857
		c0.491,0.619,1.978,1.818,4.46,3.598c3.956,2.837,6.562,5.268,7.816,7.292c1.253,2.025,1.881,4.223,1.881,6.596
		c0,3.121-1.283,6.074-3.849,8.859c-2.566,2.785-6.286,4.178-11.161,4.178c-2.812,0-5.371-0.567-7.679-1.702
		c-2.308-1.134-4.881-3.21-7.717-6.228l6.383-7.428c2.888,3.817,6.047,5.726,9.478,5.726c1.367,0,2.457-0.329,3.269-0.986
		c0.813-0.658,1.219-1.438,1.219-2.341c0-0.722-0.31-1.463-0.928-2.224c-0.619-0.761-2.309-2.121-5.068-4.082
		c-3.198-2.269-5.403-4.216-6.615-5.841c-1.702-2.269-2.553-4.667-2.553-7.195c0-3.533,1.334-6.409,4.004-8.627
		c2.669-2.218,5.822-3.327,9.458-3.327c2.553,0,4.977,0.606,7.273,1.818C445.289,19.154,447.197,20.869,448.719,23.087z"/>
	<path d="M462.763,0.959h10.268l-2.79,20.515c3.955-3.567,8.064-5.351,12.329-5.351c3.645,0,6.629,1.156,8.955,3.466
		c2.326,2.31,3.489,5.221,3.489,8.732c0,1.652-0.219,4.118-0.658,7.396l-3.222,23.579h-10.307l3.145-23.018
		c0.31-2.373,0.464-4.152,0.464-5.338c0-1.702-0.484-3.011-1.453-3.927c-0.968-0.915-2.343-1.373-4.125-1.373
		c-1.729,0-3.46,0.6-5.19,1.8c-1.73,1.2-3.06,2.864-3.99,4.993s-1.782,6.122-2.556,11.979L465.1,59.296h-10.307L462.763,0.959z"/>
	<path d="M335.74,92.653l-8.738,4.756c-2.475-3.141-5.799-4.712-9.975-4.712c-2.809,0-5.296,0.599-7.462,1.796
		c-2.165,1.198-3.892,2.929-5.181,5.195c-1.289,2.266-1.933,4.661-1.933,7.185c0,3.245,1.018,5.845,3.054,7.802
		c2.036,1.958,4.833,2.936,8.39,2.936c4.922,0,8.699-1.661,11.328-4.983l8.119,5.738c-2.297,2.74-5.154,4.885-8.573,6.436
		s-7.232,2.326-11.438,2.326c-6.554,0-11.721-1.805-15.501-5.416c-3.78-3.611-5.67-8.381-5.67-14.313
		c0-6.783,2.335-12.566,7.005-17.351c4.67-4.784,10.681-7.176,18.035-7.176C325.483,82.871,331.663,86.131,335.74,92.653z"/>
	<path d="M366.978,82.871c3.739,0,7.138,0.864,10.194,2.592c3.056,1.728,5.435,4.178,7.137,7.35s2.553,6.731,2.553,10.677
		c0,6.551-2.334,12.127-7.002,16.731c-4.668,4.604-10.445,6.905-17.331,6.905c-5.983,0-10.754-1.812-14.313-5.435
		c-3.559-3.623-5.338-8.362-5.338-14.217c0-7.066,2.411-12.934,7.234-17.602C354.934,85.205,360.557,82.871,366.978,82.871z
		 M366.26,92.658c-4.223,0-7.46,1.516-9.713,4.545c-2.253,3.031-3.379,6.313-3.379,9.846c0,3.146,0.92,5.681,2.761,7.602
		c1.841,1.921,4.293,2.882,7.357,2.882c4.352,0,7.667-1.463,9.945-4.391c2.278-2.927,3.418-6.273,3.418-10.039
		c0-3.095-0.966-5.609-2.896-7.543C371.822,93.625,369.324,92.658,366.26,92.658z"/>
	<path d="M398.872,83.954h10.221l-2.939,21.509c-0.31,2.373-0.464,4.153-0.464,5.339c0,1.856,0.645,3.417,1.936,4.681
		c1.291,1.264,2.969,1.896,5.035,1.896c2.66,0,4.706-0.813,6.139-2.437c1.433-1.625,2.486-4.926,3.157-9.903l2.881-21.083h10.229
		l-3.015,22.637c-0.699,5.105-1.869,9.056-3.511,11.854c-1.642,2.797-3.82,4.944-6.535,6.439c-2.715,1.496-5.909,2.243-9.58,2.243
		c-5.171,0-9.282-1.49-12.334-4.47c-3.051-2.98-4.577-6.831-4.577-11.553c0-2.888,0.336-6.6,1.011-11.139L398.872,83.954z"/>
	<path d="M443.909,83.954h9.205l-0.735,5.726c2.759-4.539,6.073-6.809,9.942-6.809c0.928,0,1.896,0.247,2.901,0.74l-3.778,9.393
		c-0.785-0.282-1.36-0.423-1.727-0.423c-2.015,0-3.813,1.167-5.395,3.501c-1.583,2.334-2.832,7.047-3.747,14.139l-2.041,15.822
		h-10.376L443.909,83.954z"/>
	<path d="M494.677,89.834l-4.924,7.892c-1.267-1.882-2.599-3.269-3.995-4.159c-1.396-0.89-2.702-1.334-3.917-1.334
		c-0.931,0-1.719,0.258-2.365,0.773c-0.647,0.516-0.97,1.097-0.97,1.741c0,0.619,0.258,1.238,0.776,1.857
		c0.491,0.619,1.978,1.818,4.46,3.598c3.956,2.837,6.562,5.268,7.816,7.292c1.253,2.025,1.881,4.223,1.881,6.596
		c0,3.121-1.283,6.074-3.849,8.859c-2.566,2.785-6.286,4.178-11.161,4.178c-2.812,0-5.371-0.567-7.679-1.702
		c-2.308-1.134-4.881-3.21-7.717-6.228l6.383-7.428c2.888,3.817,6.047,5.726,9.478,5.726c1.367,0,2.457-0.329,3.269-0.986
		c0.813-0.658,1.219-1.438,1.219-2.341c0-0.722-0.31-1.463-0.928-2.224c-0.619-0.761-2.309-2.121-5.068-4.082
		c-3.198-2.269-5.403-4.216-6.615-5.841c-1.702-2.269-2.553-4.667-2.553-7.195c0-3.533,1.334-6.409,4.004-8.627
		c2.669-2.218,5.822-3.327,9.458-3.327c2.553,0,4.977,0.606,7.273,1.818C491.247,85.901,493.155,87.616,494.677,89.834z"/>
	<path d="M532.279,113.726l9.091,4.711c-2.038,2.678-4.739,4.795-8.104,6.353c-3.366,1.557-7.099,2.336-11.2,2.336
		c-6.421,0-11.483-1.805-15.184-5.416c-3.701-3.611-5.551-8.408-5.551-14.391c0-6.834,2.314-12.617,6.944-17.35
		c4.629-4.732,10.219-7.099,16.77-7.099c3.946,0,7.459,0.864,10.542,2.592c3.082,1.728,5.513,4.243,7.292,7.543
		c1.779,3.302,2.669,6.886,2.669,10.754c0,1.213-0.129,2.631-0.387,4.255h-33.579c0.103,2.926,1.064,5.257,2.882,6.992
		c1.818,1.735,4.326,2.603,7.524,2.603C525.857,117.61,529.287,116.315,532.279,113.726z M534.91,100.434
		c-0.774-2.579-2.063-4.532-3.869-5.861c-1.806-1.328-3.984-1.992-6.538-1.992c-2.528,0-4.811,0.684-6.847,2.05
		c-2.038,1.367-3.585,3.301-4.643,5.803H534.91z"/>
</g>
</svg>
